<?xml version="1.0" standalone="no"?>
<!DOCTYPE svg PUBLIC "-//W3C//DTD SVG 20010904//EN"
 "http://www.w3.org/TR/2001/REC-SVG-20010904/DTD/svg10.dtd">
<svg version="1.0" xmlns="http://www.w3.org/2000/svg"
 width="300.000000pt" height="300.000000pt" viewBox="0 0 300.000000 300.000000"
 preserveAspectRatio="xMidYMid meet">
<metadata>
Created by potrace 1.10, written by Peter Selinger 2001-2011
</metadata>
<g transform="translate(0.000000,300.000000) scale(0.100000,-0.100000)"
fill="#000000" stroke="none">
<path d="M1467 1692 c-20 -22 -22 -62 -4 -62 7 0 17 10 22 22 14 33 42 35 56
4 13 -27 39 -36 39 -12 0 7 -9 25 -21 40 -24 31 -68 35 -92 8z"/>
<path d="M1380 1478 l0 -158 31 0 30 0 -3 95 -3 95 78 0 c70 0 77 -2 77 -20 0
-17 -7 -20 -50 -20 -37 0 -50 -4 -50 -14 0 -10 14 -16 42 -18 31 -2 44 -8 46
-20 3 -15 -4 -18 -42 -18 -40 0 -46 -3 -46 -21 0 -19 5 -21 50 -17 46 3 50 1
50 -19 0 -18 6 -23 25 -23 l25 0 0 159 0 158 -25 -5 c-14 -2 -25 -8 -25 -13 0
-5 -13 -9 -30 -9 -16 0 -30 5 -30 10 0 6 -9 10 -20 10 -11 0 -20 -4 -20 -10 0
-5 -14 -10 -31 -10 -16 0 -28 4 -25 9 3 5 -8 11 -24 13 l-30 5 0 -159z m223
100 c12 -37 -2 -43 -94 -43 -84 0 -89 1 -89 21 0 11 3 24 7 27 12 13 171 8
176 -5z"/>
<path d="M523 1609 c-31 -19 -53 -47 -66 -81 -5 -15 -2 -15 35 2 32 14 44 27
54 56 7 21 12 39 11 41 -1 1 -17 -7 -34 -18z"/>
<path d="M570 1594 c-7 -19 -10 -38 -7 -40 3 -3 25 -4 50 -2 l45 3 -15 38
c-21 51 -56 52 -73 1z"/>
<path d="M650 1627 c0 -2 7 -21 15 -41 11 -25 26 -40 52 -51 20 -8 38 -14 40
-12 8 9 -45 73 -75 90 -17 10 -32 17 -32 14z"/>
<path d="M2458 1600 c3 -23 0 -30 -12 -30 -9 0 -16 -8 -16 -20 0 -11 7 -20 15
-20 12 0 15 -15 15 -74 0 -64 3 -79 23 -100 12 -13 32 -27 45 -31 19 -6 22 -3
22 25 0 17 -7 38 -15 46 -10 10 -15 35 -15 75 0 46 3 59 15 59 8 0 15 9 15 20
0 12 -7 20 -16 20 -10 0 -14 6 -10 15 3 10 -5 20 -24 30 -41 21 -47 19 -42
-15z"/>
<path d="M790 1477 c0 -103 9 -126 59 -147 22 -9 38 -9 61 -2 21 8 39 8 60 0
23 -7 39 -7 61 2 50 21 59 44 59 147 l0 93 -35 0 -34 0 -3 -87 c-3 -80 -5 -88
-23 -88 -18 0 -20 7 -21 69 -1 68 -2 69 -35 87 l-34 17 0 -87 c0 -79 -2 -86
-20 -86 -18 0 -20 8 -23 88 l-3 87 -34 0 -35 0 0 -93z"/>
<path d="M1183 1556 c-49 -22 -63 -60 -63 -170 l0 -96 35 17 34 16 3 80 c2 63
7 82 21 91 12 8 22 8 35 0 13 -9 18 -28 20 -93 l3 -81 36 0 35 0 -4 90 c-4 84
-6 93 -34 120 -35 36 -78 45 -121 26z"/>
<path d="M1719 1541 c-29 -29 -29 -31 -29 -140 l0 -111 35 17 35 17 0 88 c0
81 2 88 20 88 23 0 23 -1 20 -102 l-2 -78 36 0 35 0 3 88 c3 79 5 87 23 87 18
0 20 -8 23 -87 l3 -88 34 0 35 0 0 85 c0 100 -14 136 -61 155 -24 10 -38 11
-62 2 -19 -7 -36 -8 -48 -2 -33 18 -70 11 -100 -19z"/>
<path d="M2085 1556 c-42 -18 -65 -57 -65 -110 0 -78 71 -135 144 -115 22 7
37 4 63 -12 l33 -21 0 82 c0 97 -17 142 -62 170 -38 23 -70 25 -113 6z m89
-72 c39 -38 -1 -106 -52 -88 -15 5 -31 21 -36 36 -18 51 50 91 88 52z"/>
<path d="M2352 1553 c-18 -9 -39 -28 -46 -42 -13 -24 -27 -225 -16 -218 3 1
17 9 33 16 25 13 27 18 27 80 0 69 17 111 46 111 9 0 14 11 14 35 0 40 -9 42
-58 18z"/>
<path d="M550 1475 l0 -55 55 0 55 0 0 55 0 55 -55 0 -55 0 0 -55z m80 -6 c0
-20 -16 -24 -38 -10 -11 7 -12 12 -1 29 15 24 39 12 39 -19z"/>
<path d="M483 1505 c-44 -19 -44 -49 -2 -64 47 -16 49 -15 49 34 0 50 -1 50
-47 30z"/>
<path d="M685 1475 c0 -50 3 -52 45 -30 37 19 39 48 5 63 -43 20 -50 15 -50
-33z"/>
<path d="M467 1399 c16 -28 77 -79 95 -79 4 0 -1 19 -12 41 -14 33 -27 45 -57
55 -21 8 -39 14 -41 14 -2 0 5 -14 15 -31z"/>
<path d="M712 1416 c-22 -7 -35 -18 -39 -36 -3 -14 -10 -31 -16 -38 -18 -23
-1 -23 33 0 32 22 82 90 63 87 -4 -1 -23 -7 -41 -13z"/>
<path d="M560 1395 c0 -3 7 -21 14 -40 10 -24 22 -35 35 -35 12 0 21 2 21 4 0
2 7 20 15 40 l15 36 -50 0 c-27 0 -50 -2 -50 -5z"/>
</g>
</svg>
