<svg xmlns="http://www.w3.org/2000/svg" xmlns:xlink="http://www.w3.org/1999/xlink" width="800" zoomAndPan="magnify" viewBox="0 0 600 599.999999" height="800" preserveAspectRatio="xMidYMid meet" version="1.0"><rect x="-60" width="720" fill="#ffffff" y="-60" height="719.999999" fill-opacity="1"/><rect x="-60" width="720" fill="#ffffff" y="-60" height="719.999999" fill-opacity="1"/><path fill="#004aad" d="M 128.550781 13.738281 C 126.238281 16.28125 126.007812 20.90625 128.089844 20.90625 C 128.898438 20.90625 130.054688 19.75 130.632812 18.363281 C 132.25 14.546875 135.488281 14.316406 137.105469 17.898438 C 138.609375 21.023438 141.617188 22.0625 141.617188 19.289062 C 141.617188 18.476562 140.574219 16.398438 139.1875 14.664062 C 136.414062 11.078125 131.324219 10.617188 128.550781 13.738281 Z M 128.550781 13.738281 " fill-opacity="1" fill-rule="nonzero"/><path fill="#004aad" d="M 118.492188 38.480469 L 118.492188 56.75 L 125.542969 56.75 L 125.199219 45.765625 L 124.851562 34.78125 L 133.871094 34.78125 C 141.964844 34.78125 142.773438 35.011719 142.773438 37.09375 C 142.773438 39.058594 141.964844 39.40625 136.992188 39.40625 C 132.714844 39.40625 131.210938 39.867188 131.210938 41.023438 C 131.210938 42.179688 132.828125 42.875 136.066406 43.105469 C 139.652344 43.335938 141.152344 44.03125 141.386719 45.417969 C 141.730469 47.152344 140.921875 47.5 136.527344 47.5 C 131.902344 47.5 131.210938 47.847656 131.210938 49.929688 C 131.210938 52.125 131.789062 52.355469 136.992188 51.894531 C 142.308594 51.546875 142.773438 51.777344 142.773438 54.089844 C 142.773438 56.171875 143.464844 56.75 145.664062 56.75 L 148.554688 56.75 L 148.554688 20.097656 L 145.664062 20.675781 C 144.042969 20.90625 142.773438 21.601562 142.773438 22.179688 C 142.773438 22.757812 141.269531 23.21875 139.304688 23.21875 C 137.453125 23.21875 135.835938 22.640625 135.835938 22.0625 C 135.835938 21.367188 134.792969 20.90625 133.523438 20.90625 C 132.25 20.90625 131.210938 21.367188 131.210938 22.0625 C 131.210938 22.640625 129.589844 23.21875 127.625 23.21875 C 125.777344 23.21875 124.386719 22.757812 124.734375 22.179688 C 125.082031 21.601562 123.808594 20.90625 121.960938 20.675781 L 118.492188 20.097656 Z M 144.277344 26.917969 C 145.664062 31.195312 144.042969 31.890625 133.40625 31.890625 C 123.695312 31.890625 123.117188 31.773438 123.117188 29.460938 C 123.117188 28.191406 123.464844 26.6875 123.925781 26.339844 C 125.3125 24.835938 143.699219 25.414062 144.277344 26.917969 Z M 144.277344 26.917969 " fill-opacity="1" fill-rule="nonzero"/><path fill="#004aad" d="M 19.402344 23.335938 C 15.816406 25.53125 13.273438 28.769531 11.769531 32.699219 C 11.191406 34.433594 11.539062 34.433594 15.816406 32.46875 C 19.515625 30.851562 20.902344 29.347656 22.058594 25.992188 C 22.871094 23.566406 23.449219 21.484375 23.332031 21.253906 C 23.214844 21.136719 21.367188 22.0625 19.402344 23.335938 Z M 19.402344 23.335938 " fill-opacity="1" fill-rule="nonzero"/><path fill="#004aad" d="M 24.835938 25.070312 C 24.027344 27.265625 23.679688 29.460938 24.027344 29.695312 C 24.371094 30.039062 26.917969 30.15625 29.808594 29.925781 L 35.011719 29.578125 L 33.277344 25.183594 C 30.847656 19.289062 26.800781 19.171875 24.835938 25.070312 Z M 24.835938 25.070312 " fill-opacity="1" fill-rule="nonzero"/><path fill="#004aad" d="M 34.085938 21.253906 C 34.085938 21.484375 34.894531 23.679688 35.820312 25.992188 C 37.089844 28.882812 38.824219 30.617188 41.832031 31.890625 C 44.144531 32.816406 46.226562 33.507812 46.457031 33.277344 C 47.382812 32.238281 41.253906 24.835938 37.785156 22.871094 C 35.820312 21.714844 34.085938 20.90625 34.085938 21.253906 Z M 34.085938 21.253906 " fill-opacity="1" fill-rule="nonzero"/><path fill="#004aad" d="M 243.136719 24.375 C 243.480469 27.035156 243.136719 27.84375 241.746094 27.84375 C 240.707031 27.84375 239.898438 28.769531 239.898438 30.15625 C 239.898438 31.429688 240.707031 32.46875 241.632812 32.46875 C 243.019531 32.46875 243.367188 34.203125 243.367188 41.023438 C 243.367188 48.425781 243.714844 50.160156 246.027344 52.585938 C 247.414062 54.089844 249.726562 55.710938 251.230469 56.171875 C 253.425781 56.867188 253.773438 56.519531 253.773438 53.28125 C 253.773438 51.316406 252.964844 48.886719 252.039062 47.960938 C 250.882812 46.804688 250.304688 43.914062 250.304688 39.289062 C 250.304688 33.972656 250.652344 32.46875 252.039062 32.46875 C 252.964844 32.46875 253.773438 31.429688 253.773438 30.15625 C 253.773438 28.769531 252.964844 27.84375 251.921875 27.84375 C 250.765625 27.84375 250.304688 27.148438 250.765625 26.109375 C 251.113281 24.953125 250.1875 23.796875 247.992188 22.640625 C 243.25 20.210938 242.558594 20.445312 243.136719 24.375 Z M 243.136719 24.375 " fill-opacity="1" fill-rule="nonzero"/><path fill="#004aad" d="M 50.273438 38.597656 C 50.273438 50.507812 51.3125 53.164062 57.09375 55.59375 C 59.636719 56.632812 61.488281 56.632812 64.148438 55.824219 C 66.574219 54.898438 68.65625 54.898438 71.085938 55.824219 C 73.746094 56.632812 75.59375 56.632812 78.136719 55.59375 C 83.917969 53.164062 84.960938 50.507812 84.960938 38.597656 L 84.960938 27.84375 L 76.980469 27.84375 L 76.636719 37.902344 C 76.289062 47.152344 76.058594 48.078125 73.976562 48.078125 C 71.894531 48.078125 71.664062 47.269531 71.546875 40.101562 C 71.433594 32.238281 71.316406 32.121094 67.5 30.039062 L 63.570312 28.074219 L 63.570312 38.132812 C 63.570312 47.269531 63.339844 48.078125 61.257812 48.078125 C 59.175781 48.078125 58.945312 47.152344 58.597656 37.902344 L 58.25 27.84375 L 50.273438 27.84375 Z M 50.273438 38.597656 " fill-opacity="1" fill-rule="nonzero"/><path fill="#004aad" d="M 95.714844 29.460938 C 90.046875 32.007812 88.429688 36.398438 88.429688 49.117188 L 88.429688 60.21875 L 92.476562 58.253906 L 96.40625 56.402344 L 96.753906 47.152344 C 96.984375 39.867188 97.5625 37.671875 99.183594 36.632812 C 100.570312 35.707031 101.726562 35.707031 103.230469 36.632812 C 104.730469 37.671875 105.308594 39.867188 105.542969 47.382812 L 105.886719 56.75 L 114.097656 56.75 L 113.636719 46.34375 C 113.171875 36.632812 112.941406 35.589844 109.703125 32.46875 C 105.65625 28.304688 100.683594 27.265625 95.714844 29.460938 Z M 95.714844 29.460938 " fill-opacity="1" fill-rule="nonzero"/><path fill="#004aad" d="M 157.6875 31.195312 C 154.335938 34.550781 154.335938 34.78125 154.335938 47.382812 L 154.335938 60.21875 L 162.429688 56.289062 L 162.429688 46.113281 C 162.429688 36.746094 162.660156 35.9375 164.742188 35.9375 C 167.402344 35.9375 167.402344 36.054688 167.054688 47.730469 L 166.824219 56.75 L 175.03125 56.75 L 175.378906 46.574219 C 175.726562 37.441406 175.957031 36.515625 178.039062 36.515625 C 180.121094 36.515625 180.351562 37.441406 180.699219 46.574219 L 181.042969 56.75 L 189.023438 56.75 L 189.023438 46.921875 C 189.023438 35.359375 187.402344 31.195312 181.96875 29 C 179.195312 27.84375 177.574219 27.726562 174.800781 28.769531 C 172.605469 29.578125 170.636719 29.695312 169.25 29 C 165.433594 26.917969 161.15625 27.726562 157.6875 31.195312 Z M 157.6875 31.195312 " fill-opacity="1" fill-rule="nonzero"/><path fill="#004aad" d="M 200.007812 29.460938 C 195.152344 31.542969 192.492188 36.054688 192.492188 42.179688 C 192.492188 51.199219 200.699219 57.789062 209.140625 55.476562 C 211.683594 54.667969 213.417969 55.015625 216.425781 56.867188 L 220.242188 59.292969 L 220.242188 49.8125 C 220.242188 38.597656 218.277344 33.394531 213.074219 30.15625 C 208.679688 27.496094 204.980469 27.265625 200.007812 29.460938 Z M 210.296875 37.789062 C 214.808594 42.179688 210.183594 50.042969 204.285156 47.960938 C 202.550781 47.382812 200.699219 45.535156 200.121094 43.800781 C 198.042969 37.902344 205.902344 33.277344 210.296875 37.789062 Z M 210.296875 37.789062 " fill-opacity="1" fill-rule="nonzero"/><path fill="#004aad" d="M 230.878906 29.808594 C 228.796875 30.851562 226.371094 33.046875 225.558594 34.664062 C 224.058594 37.441406 222.4375 60.679688 223.710938 59.871094 C 224.058594 59.757812 225.675781 58.832031 227.527344 58.023438 C 230.417969 56.519531 230.648438 55.941406 230.648438 48.773438 C 230.648438 40.792969 232.613281 35.9375 235.964844 35.9375 C 237.007812 35.9375 237.585938 34.664062 237.585938 31.890625 C 237.585938 27.265625 236.542969 27.035156 230.878906 29.808594 Z M 230.878906 29.808594 " fill-opacity="1" fill-rule="nonzero"/><path fill="#004aad" d="M 22.523438 38.828125 L 22.523438 45.1875 L 35.242188 45.1875 L 35.242188 32.46875 L 22.523438 32.46875 Z M 31.773438 39.523438 C 31.773438 41.835938 29.921875 42.296875 27.378906 40.679688 C 26.105469 39.867188 25.992188 39.289062 27.261719 37.324219 C 28.996094 34.550781 31.773438 35.9375 31.773438 39.523438 Z M 31.773438 39.523438 " fill-opacity="1" fill-rule="nonzero"/><path fill="#004aad" d="M 14.777344 35.359375 C 9.6875 37.554688 9.6875 41.023438 14.542969 42.757812 C 19.980469 44.609375 20.210938 44.492188 20.210938 38.828125 C 20.210938 33.046875 20.09375 33.046875 14.777344 35.359375 Z M 14.777344 35.359375 " fill-opacity="1" fill-rule="nonzero"/><path fill="#004aad" d="M 38.132812 38.828125 C 38.132812 44.609375 38.480469 44.839844 43.335938 42.296875 C 47.613281 40.101562 47.84375 36.746094 43.914062 35.011719 C 38.941406 32.699219 38.132812 33.277344 38.132812 38.828125 Z M 38.132812 38.828125 " fill-opacity="1" fill-rule="nonzero"/><path fill="#004aad" d="M 12.925781 47.617188 C 14.777344 50.851562 21.828125 56.75 23.910156 56.75 C 24.371094 56.75 23.792969 54.554688 22.523438 52.007812 C 20.902344 48.195312 19.402344 46.804688 15.933594 45.648438 C 13.503906 44.726562 11.421875 44.03125 11.191406 44.03125 C 10.960938 44.03125 11.769531 45.648438 12.925781 47.617188 Z M 12.925781 47.617188 " fill-opacity="1" fill-rule="nonzero"/><path fill="#004aad" d="M 41.253906 45.648438 C 38.710938 46.460938 37.207031 47.730469 36.746094 49.8125 C 36.398438 51.429688 35.589844 53.398438 34.894531 54.207031 C 32.8125 56.867188 34.777344 56.867188 38.710938 54.207031 C 42.410156 51.664062 48.191406 43.800781 45.996094 44.148438 C 45.53125 44.261719 43.335938 44.957031 41.253906 45.648438 Z M 41.253906 45.648438 " fill-opacity="1" fill-rule="nonzero"/><path fill="#004aad" d="M 23.679688 48.078125 C 23.679688 48.425781 24.488281 50.507812 25.296875 52.703125 C 26.453125 55.476562 27.839844 56.75 29.34375 56.75 C 30.730469 56.75 31.773438 56.519531 31.773438 56.289062 C 31.773438 56.054688 32.582031 53.976562 33.507812 51.664062 L 35.242188 47.5 L 29.460938 47.5 C 26.339844 47.5 23.679688 47.730469 23.679688 48.078125 Z M 23.679688 48.078125 " fill-opacity="1" fill-rule="nonzero"/></svg>